<?xml version="1.0" encoding="iso-8859-1"?>
<!-- Uploaded to: SVG Repo, www.svgrepo.com, Generator: SVG Repo Mixer Tools -->
<svg version="1.1" id="Layer_1" xmlns="http://www.w3.org/2000/svg" xmlns:xlink="http://www.w3.org/1999/xlink" 
	 viewBox="0 0 265.862 265.862" xml:space="preserve">
<g>
	<path style="fill:#9DD3E0;" d="M136.01,125.849c-1.186-6.717-0.864-22.115-0.864-22.115C134.206,47.871,126.634,0,126.634,0
		s-6.992,104.054-7.17,109.616c-0.177,5.561-1.66,37.693-1.66,37.693c-2.059,9.677-8.843,60.258-8.843,60.258l0.241,0.033
		c-0.081-0.001-0.159-0.013-0.241-0.013c-10.72,0-19.41,9.104-19.41,20.333c0,11.231,8.69,20.335,19.41,20.335
		s19.41-9.104,19.41-20.335c0-9.605-6.365-17.635-14.913-19.762l0.95,0.124c0,0,7.727-42.945,10.1-52.648
		c2.374-9.702,12.029-11.762,12.584-14.661C137.647,138.074,137.195,132.565,136.01,125.849z M124.973,227.92
		c0,9.265-7.169,16.775-16.012,16.775s-16.012-7.51-16.012-16.775c0-9.263,7.169-16.774,16.012-16.774
		S124.973,218.657,124.973,227.92z"/>
	<g>
		<path style="fill:#C5E5ED;" d="M175.603,262.815c-2.667-1.549-8.283-5.262-11.228-10.527c-2.211-3.95-1.849-8.846,0.758-12.545
			c2.122-3.012,4.93-7.361,5.343-9.824c0.006-0.032,0.007-0.054,0.012-0.084c0.888-3.16,1.009-6.642-0.17-10.306
			c-2.289-7.114-8.766-12.263-16.228-12.67c-0.354-0.019-0.701-0.003-1.052-0.002c-0.689-3.149-10.956-50.006-13.703-59.162
			c0,0-4.107-31.904-4.738-37.431c-0.632-5.528-16.109-108.662-16.109-108.662s-3.633,48.329,0,104.082c0,0,1.58,15.32,0.948,22.111
			c-0.633,6.792-0.633,12.319,0.157,15.163c0.79,2.842,10.582,4.105,13.74,13.582c2.961,8.883,12.999,46.487,14.245,51.167
			c-7.304,2.33-12.604,9.15-12.604,17.227c0,9.64,7.536,17.52,17.037,18.071c0.997,0.058,1.987,0.24,2.888,0.672
			c1.552,0.744,3.574,2.262,3.861,5.178c0.449,4.555,4.993,14.266,14.435,16.911c1.012,0.284,2.101-0.075,2.779-0.879
			C176.547,264.207,176.368,263.259,175.603,262.815z M153.075,239.864c-8.246,0-14.932-6.685-14.932-14.932
			c0-8.246,6.686-14.931,14.932-14.931c8.247,0,14.933,6.685,14.933,14.931C168.008,233.179,161.322,239.864,153.075,239.864z"/>
		<g>
			<g>
				<circle style="fill:#ACDAE5;" cx="127.332" cy="123.529" r="4.581"/>
				<rect x="123.858" y="122.931" style="fill:#C5E5ED;" width="6.949" height="1.197"/>
			</g>
			<path style="fill:#ACDAE5;" d="M133.394,101.735l-11.747,2.927c0,0,1.008,3.39,5.874,4.18c4.865,0.79,6.89,0,6.89,0
				L133.394,101.735z"/>
		</g>
	</g>
</g>
</svg>